<svg width="38" height="38" viewBox="0 0 38 38" fill="none" xmlns="http://www.w3.org/2000/svg">
<path d="M3.16975 19.0035C3.17161 26.7925 8.83557 33.4246 16.5284 34.6452V23.5793H12.5114V19.0035H16.5332V15.5202C16.3533 13.8696 16.9171 12.2246 18.0715 11.0313C19.2259 9.83805 20.8514 9.22013 22.5071 9.34519C23.6954 9.36439 24.8807 9.47022 26.0537 9.66187V13.5553H24.0524C23.3633 13.465 22.6706 13.6926 22.1694 14.1738C21.6681 14.6551 21.4125 15.3379 21.4747 16.03V19.0035H25.8622L25.1607 23.5809H21.4747V34.6452C29.7942 33.3304 35.6282 25.7323 34.7502 17.3554C33.8721 8.97844 26.5892 2.75524 18.1779 3.19422C9.76649 3.6332 3.1711 10.5807 3.16975 19.0035Z" fill="white"/>
</svg>
