<svg width="38" height="38" viewBox="0 0 38 38" fill="none" xmlns="http://www.w3.org/2000/svg">
<path d="M19.2501 33.557C15.355 33.557 14.8958 33.5364 13.3758 33.4699C12.1905 33.431 11.0205 33.19 9.91625 32.7574C8.00566 32.0139 6.49489 30.5026 5.75208 28.5917C5.33616 27.4833 5.11181 26.3125 5.08867 25.1289C5 23.6121 5 23.1149 5 19.25C5 15.3439 5.02058 14.8879 5.08867 13.3758C5.11232 12.1939 5.33665 11.0246 5.75208 9.91783C6.49408 8.00442 8.0073 6.49179 9.921 5.7505C11.0272 5.33283 12.1968 5.1079 13.379 5.0855C14.8911 5 15.3882 5 19.2501 5C23.1767 5 23.628 5.02058 25.1242 5.0855C26.3094 5.10809 27.4821 5.33299 28.5917 5.7505C30.5049 6.49262 32.0178 8.00498 32.7607 9.91783C33.1836 11.0407 33.409 12.2283 33.4272 13.4281C33.5159 14.9449 33.5159 15.4405 33.5159 19.3038C33.5159 23.1672 33.4937 23.6738 33.4272 25.1733C33.4037 26.3579 33.1787 27.5299 32.7622 28.6392C32.0174 30.5514 30.5044 32.0633 28.5917 32.8065C27.4837 33.2217 26.3135 33.446 25.1306 33.4699C23.6185 33.557 23.1229 33.557 19.2501 33.557ZM19.1962 7.50642C15.3233 7.50642 14.9212 7.52542 13.4091 7.5935C12.5066 7.60547 11.6128 7.77202 10.7665 8.08592C9.51687 8.5641 8.52803 9.54892 8.04475 10.7966C7.72843 11.6521 7.56185 12.5556 7.55233 13.4677C7.46842 15.0019 7.46842 15.4041 7.46842 19.25C7.46842 23.05 7.48267 23.5108 7.55233 25.0355C7.56652 25.9383 7.73299 26.8323 8.04475 27.6797C8.52874 28.9265 9.51741 29.9106 10.7665 30.3888C11.6122 30.7048 12.5063 30.8714 13.4091 30.8812C14.9417 30.9698 15.3455 30.9698 19.1962 30.9698C23.0802 30.9698 23.4823 30.9508 24.9817 30.8812C25.8849 30.8702 26.7793 30.7037 27.6259 30.3888C28.8679 29.9065 29.8503 28.9246 30.3334 27.6828C30.6491 26.8267 30.8155 25.9226 30.8258 25.0102H30.8432C30.9113 23.4965 30.9113 23.0928 30.9113 19.2247C30.9113 15.3566 30.8939 14.9497 30.8258 13.4376C30.8116 12.5358 30.645 11.6429 30.3334 10.7966C29.8514 9.553 28.8688 8.56931 27.6259 8.08592C26.7795 7.77044 25.8849 7.60384 24.9817 7.5935C23.4507 7.50642 23.0501 7.50642 19.1962 7.50642ZM19.2501 26.5634C16.2891 26.5653 13.6187 24.7833 12.4842 22.0485C11.3497 19.3137 11.9744 16.1646 14.0672 14.0701C16.1599 11.9755 19.3083 11.348 22.0442 12.4802C24.78 13.6124 26.5643 16.2813 26.5651 19.2421C26.5606 23.2813 23.2892 26.5555 19.2501 26.5634ZM19.2501 14.4889C16.6267 14.4889 14.5 16.6157 14.5 19.2389C14.5 21.8623 16.6267 23.9889 19.2501 23.9889C21.8733 23.9889 24.0001 21.8623 24.0001 19.2389C23.9939 16.618 21.8708 14.495 19.2501 14.4889ZM26.8501 13.36C25.9086 13.3565 25.1478 12.5914 25.1496 11.65C25.1513 10.7086 25.915 9.94635 26.8564 9.94635C27.7977 9.94635 28.5613 10.7086 28.5632 11.65C28.5636 12.1042 28.3831 12.5399 28.0616 12.8607C27.7402 13.1816 27.3042 13.3613 26.8501 13.36Z" fill="white"/>
</svg>
