<svg width="37" height="37" viewBox="0 0 37 37" fill="none" xmlns="http://www.w3.org/2000/svg">
<path d="M30.8333 33.9163H6.16666C4.46378 33.9163 3.08333 32.5359 3.08333 30.833V13.9502C3.13536 12.9155 3.6958 11.9735 4.58029 11.4342L16.9136 4.03415C17.8897 3.4489 19.1088 3.4489 20.0848 4.03415L32.4182 11.4342C33.345 11.9934 33.913 12.9956 33.9167 14.0781V30.833C33.9167 32.5359 32.5363 33.9163 30.8333 33.9163ZM6.16666 15.2128V30.833H30.8333V15.2128L18.5 23.4345L6.16666 15.2128ZM18.5 6.67811L8.1955 12.8602L18.5 19.7299L28.803 12.8602L18.5 6.67811Z" fill="white"/>
</svg>
