<svg width="38" height="38" viewBox="0 0 38 38" fill="none" xmlns="http://www.w3.org/2000/svg">
<path d="M30.0794 31.6668C16.571 31.686 6.31889 21.311 6.33334 7.9208C6.33334 7.04636 7.04223 6.3335 7.91668 6.3335H12.0957C12.8803 6.3335 13.5469 6.91004 13.6621 7.68619C13.9383 9.5464 14.4798 11.3574 15.2704 13.0638L15.4331 13.415C15.6594 13.9033 15.506 14.4835 15.0681 14.7962C13.7739 15.7204 13.2793 17.5809 14.2875 19.0325C15.5527 20.8539 17.1477 22.4485 18.9688 23.7131C20.4202 24.7211 22.2803 24.2266 23.2045 22.9325C23.5176 22.4944 24.098 22.341 24.5866 22.5673L24.9362 22.7292C26.6427 23.5198 28.4538 24.0614 30.3142 24.3376C31.0903 24.4527 31.6667 25.1193 31.6667 25.904V30.0835C31.6667 30.958 30.9561 31.6668 30.0816 31.6668H30.0794Z" fill="white"/>
</svg>
