<svg width="38" height="38" viewBox="0 0 38 38" fill="none" xmlns="http://www.w3.org/2000/svg">
<path d="M31.6587 10.5892C33.078 9.74071 34.1401 8.40462 34.6465 6.83041C33.3129 7.62176 31.8535 8.17922 30.3319 8.47866C28.2223 6.247 24.8797 5.7039 22.172 7.15285C19.4644 8.60181 18.0619 11.6841 18.7482 14.6774C13.2851 14.4031 8.19529 11.8225 4.74527 7.57774C2.94477 10.6833 3.86486 14.6533 6.84794 16.6503C5.76923 16.6156 4.71443 16.3235 3.77152 15.7984C3.77152 15.8269 3.77152 15.8554 3.77152 15.8839C3.77214 19.1188 6.05211 21.9055 9.22294 22.5466C8.22237 22.8188 7.17284 22.8588 6.15444 22.6638C7.04618 25.4303 9.5959 27.3256 12.502 27.3821C10.0951 29.2712 7.1226 30.2957 4.06286 30.2907C3.52052 30.2915 2.97861 30.2603 2.43994 30.1973C5.54706 32.1938 9.16335 33.2536 12.8567 33.2499C17.9951 33.2852 22.933 31.2595 26.5663 27.6259C30.1995 23.9923 32.2249 19.0541 32.1892 13.9158C32.1892 13.6213 32.1824 13.3284 32.1686 13.0371C33.4994 12.0754 34.6478 10.884 35.5601 9.51891C34.3203 10.0684 33.0054 10.4292 31.6587 10.5892Z" fill="white"/>
</svg>
